<?xml version="1.0" encoding="utf-8"?>
<!-- Generator: Adobe Illustrator 16.0.0, SVG Export Plug-In . SVG Version: 6.00 Build 0)  -->
<!DOCTYPE svg PUBLIC "-//W3C//DTD SVG 1.1//EN" "http://www.w3.org/Graphics/SVG/1.1/DTD/svg11.dtd">
<svg version="1.1" id="Layer_1" xmlns="http://www.w3.org/2000/svg" xmlns:xlink="http://www.w3.org/1999/xlink" x="0px" y="0px"
	 width="322.959px" height="85.334px" viewBox="0 0 322.959 85.334" enable-background="new 0 0 322.959 85.334"
	 xml:space="preserve">
<g>
	<path fill="none" d="M60.569,28.921c-2.427-0.125-4.929-0.227-7.465-0.304c-0.41-2.603-0.928-5.195-1.544-7.73
		c2.013,0.04,4.074,0.092,6.188,0.159C58.875,23.65,59.822,26.291,60.569,28.921z"/>
</g>
<g>
	<path fill="none" d="M65.376,19.344c-2.126-0.098-4.238-0.184-6.309-0.254c-1.283-2.821-2.767-5.591-4.424-8.263
		c1.336,0.039,2.705,0.083,4.105,0.133C61.258,13.64,63.481,16.453,65.376,19.344z"/>
</g>
<g>
	<path fill="none" d="M43.055,41.884V30.453c2.749,0.007,5.539,0.046,8.316,0.117c0.521,3.754,0.809,7.552,0.857,11.314H43.055z"/>
</g>
<g>
	<path fill="none" d="M53.461,54.861c0.479-3.618,0.738-7.301,0.771-10.978H62.7c-0.002,3.563-0.383,7.13-1.135,10.629
		C58.91,54.659,56.242,54.774,53.461,54.861z"/>
</g>
<g>
	<path fill="none" d="M43.055,57.038c2.679-0.007,5.389-0.044,8.082-0.109c-0.414,2.589-0.949,5.175-1.594,7.712
		c-2.231,0.037-4.396,0.059-6.488,0.067V57.038z"/>
</g>
<g>
	<path fill="none" d="M60.578,64.347c1.074-2.607,1.945-5.264,2.6-7.922c2.35-0.141,4.777-0.313,7.243-0.516
		c-1.018,2.745-2.354,5.49-3.985,8.186C64.449,64.191,62.495,64.275,60.578,64.347z"/>
</g>
<g>
	<path fill="none" d="M49.542,82.173c1.518-1.805,2.93-3.641,4.218-5.481c0.905-0.024,1.827-0.052,2.764-0.082
		c-1.75,1.786-3.626,3.554-5.6,5.276C50.468,81.989,50.007,82.085,49.542,82.173z"/>
</g>
<g>
	<path fill="none" d="M64.665,41.884c-0.133-3.579-0.627-7.206-1.473-10.812c2.649,0.16,5.349,0.356,8.048,0.585
		c1.02,3.384,1.569,6.817,1.637,10.227H64.665z"/>
</g>
<g>
	<path fill="none" d="M48.428,74.808c1.02-2.699,1.912-5.446,2.663-8.194c2.102-0.04,4.232-0.093,6.361-0.158
		c-1.341,2.806-2.938,5.577-4.76,8.263C51.228,74.754,49.808,74.783,48.428,74.808z"/>
</g>
<g>
	<path fill="none" d="M74.877,41.884c-0.062-3.349-0.564-6.715-1.498-10.038c2.549,0.232,4.964,0.481,7.328,0.754
		c0.809,3.04,1.256,6.155,1.335,9.284H74.877z"/>
</g>
<g>
	<path fill="none" d="M80.094,30.516c-2.364-0.267-4.788-0.509-7.353-0.737c-0.93-2.764-2.169-5.53-3.696-8.251
		c2.446,0.13,4.785,0.27,7.092,0.425C77.793,24.644,79.12,27.517,80.094,30.516z"/>
</g>
<g>
	<path fill="#FFFFFF" d="M35.394,18.809c0.766-2.803,1.657-5.552,2.659-8.197c0.581-0.003,1.174-0.004,1.778-0.004l1.224,0.003
		v8.169l-0.197,0C38.972,18.78,37.148,18.79,35.394,18.809z"/>
</g>
<g>
	<path fill="#FFFFFF" d="M27.552,18.955c1.34-2.83,2.89-5.606,4.62-8.279c1.181-0.021,2.428-0.038,3.74-0.05
		c-0.98,2.657-1.851,5.41-2.598,8.209C31.364,18.865,29.434,18.905,27.552,18.955z"/>
</g>
<g>
	<path fill="#FFFFFF" d="M41.056,55.038c-2.736-0.008-5.465-0.046-8.138-0.114c-0.496-3.638-0.764-7.343-0.799-11.04h8.937V55.038z"
		/>
</g>
<g>
	<path fill="#FFFFFF" d="M38.094,74.88c-1.05-2.705-1.969-5.455-2.739-8.198c1.78,0.02,3.631,0.029,5.547,0.029h0.153v8.169
		l-1.301,0.003C39.191,74.883,38.637,74.882,38.094,74.88z"/>
</g>
<g>
	<path fill="#FFFFFF" d="M56.83,19.017c-1.972-0.059-3.898-0.104-5.782-0.14c-0.742-2.791-1.609-5.538-2.587-8.193
		c1.226,0.021,2.482,0.046,3.775,0.078C53.954,13.421,55.495,16.19,56.83,19.017z"/>
</g>
<g>
	<path fill="#FFFFFF" d="M48.967,18.841c-2.028-0.03-4-0.049-5.912-0.057v-8.166c1.056,0.007,2.143,0.018,3.26,0.033
		C47.315,13.297,48.204,16.044,48.967,18.841z"/>
</g>
<g>
	<path fill="#FFFFFF" d="M70.56,29.594c-2.661-0.219-5.304-0.406-7.883-0.556c-0.719-2.641-1.632-5.294-2.724-7.916
		c2.219,0.081,4.469,0.177,6.713,0.287C68.268,24.104,69.573,26.849,70.56,29.594z"/>
</g>
<g>
	<path fill="#FFFFFF" d="M20.721,54.414c-2.586-0.151-5.095-0.327-7.481-0.523c-1.042-3.321-1.628-6.681-1.749-10.007h8.159
		C19.653,47.411,20.012,50.943,20.721,54.414z"/>
</g>
<g>
	<path fill="#FFFFFF" d="M54.229,41.884c-0.048-3.743-0.326-7.519-0.831-11.255c2.666,0.083,5.204,0.19,7.709,0.325
		c0.896,3.646,1.418,7.314,1.557,10.931H54.229z"/>
</g>
<g>
	<path fill="#FFFFFF" d="M23.804,64.421c-1.958-0.068-3.914-0.148-5.835-0.241c-1.65-2.717-2.999-5.476-4.021-8.227
		c2.361,0.187,4.784,0.351,7.231,0.491C21.836,59.116,22.717,61.79,23.804,64.421z"/>
</g>
<g>
	<path fill="#FFFFFF" d="M29.265,74.752c-1.189-0.03-2.294-0.064-3.313-0.101c-2.564-2.785-4.805-5.605-6.682-8.408
		c1.765,0.078,3.574,0.148,5.404,0.208C25.964,69.263,27.504,72.046,29.265,74.752z"/>
</g>
<g>
	<path fill="#FFFFFF" d="M11.475,41.883c0.066-3.423,0.62-6.871,1.649-10.273c2.583-0.211,5.278-0.398,8.04-0.558
		c-0.849,3.61-1.344,7.243-1.478,10.831H11.475z"/>
</g>
<g>
	<path fill="#FFFFFF" d="M13.808,29.549c0.995-2.758,2.313-5.518,3.928-8.227c2.164-0.106,4.407-0.197,6.693-0.273
		c-1.106,2.648-2.028,5.32-2.749,7.971C19.001,29.169,16.363,29.347,13.808,29.549z"/>
</g>
<g>
	<path fill="#FFFFFF" d="M19.032,19.259c1.908-2.899,4.147-5.72,6.676-8.409c1.228-0.045,2.582-0.087,4.063-0.123
		c-1.671,2.685-3.165,5.465-4.454,8.292C23.18,19.086,21.075,19.167,19.032,19.259z"/>
</g>
<g>
	<path fill="#FFFFFF" d="M23.787,28.908c0.751-2.643,1.706-5.301,2.845-7.926c1.935-0.055,3.992-0.103,6.17-0.137
		c-0.622,2.559-1.143,5.163-1.554,7.767C28.734,28.686,26.233,28.785,23.787,28.908z"/>
</g>
<g>
	<path fill="#FFFFFF" d="M33.282,28.556c0.421-2.604,0.953-5.2,1.586-7.742c1.915-0.022,3.914-0.035,5.99-0.035l0.197,0v7.673
		C38.46,28.461,35.854,28.496,33.282,28.556z"/>
</g>
<g>
	<path fill="#FFFFFF" d="M51.07,28.562c-2.655-0.065-5.342-0.101-8.015-0.108v-7.669c2.076,0.008,4.223,0.03,6.436,0.065
		C50.121,23.38,50.651,25.966,51.07,28.562z"/>
</g>
<g>
	<path fill="#FFFFFF" d="M43.055,43.884h9.178c-0.034,3.697-0.302,7.401-0.798,11.035c-2.778,0.072-5.589,0.112-8.38,0.119V43.884z"
		/>
</g>
<g>
	<path fill="#FFFFFF" d="M32.123,41.884c0.049-3.767,0.338-7.565,0.859-11.319c2.658-0.066,5.366-0.103,8.073-0.111v11.43H32.123z"
		/>
</g>
<g>
	<path fill="#FFFFFF" d="M21.688,41.884c0.14-3.622,0.663-7.296,1.561-10.946c2.521-0.131,5.105-0.237,7.706-0.316
		c-0.505,3.731-0.784,7.51-0.832,11.263H21.688z"/>
</g>
<g>
	<path fill="#FFFFFF" d="M40.946,64.712c-2.125,0-4.171-0.013-6.129-0.036c-0.648-2.544-1.186-5.141-1.603-7.743
		c2.579,0.063,5.207,0.098,7.84,0.105v7.674H40.946z"/>
</g>
<g>
	<path fill="#FFFFFF" d="M51.615,64.603c0.63-2.546,1.152-5.139,1.558-7.732c2.679-0.082,5.332-0.192,7.914-0.329
		c-0.684,2.643-1.593,5.287-2.711,7.884C56.153,64.497,53.887,64.557,51.615,64.603z"/>
</g>
<g>
	<path fill="#FFFFFF" d="M30.891,54.868c-2.687-0.082-5.403-0.196-8.102-0.339c-0.754-3.5-1.136-7.073-1.139-10.646h8.468
		C30.152,47.563,30.411,51.247,30.891,54.868z"/>
</g>
<g>
	<path fill="#FFFFFF" d="M32.748,64.646c-2.297-0.036-4.557-0.088-6.742-0.154c-1.13-2.611-2.047-5.272-2.735-7.934
		c2.638,0.135,5.29,0.242,7.911,0.319C31.588,59.487,32.114,62.092,32.748,64.646z"/>
</g>
<g>
	<path fill="#FFFFFF" d="M9.379,19.825c2.288-3.241,5.027-6.108,8.167-8.545c0.661-0.052,2.457-0.183,5.348-0.315
		c-2.397,2.704-4.514,5.524-6.314,8.413C13.387,19.542,10.951,19.708,9.379,19.825z"/>
</g>
<g>
	<path fill="#FFFFFF" d="M4.023,30.5c0.976-2.999,2.303-5.87,3.959-8.557c0.995-0.084,3.522-0.284,7.371-0.497
		c-1.54,2.732-2.79,5.509-3.726,8.284C8.129,30.032,5.54,30.318,4.023,30.5z"/>
</g>
<g>
	<path fill="#FFFFFF" d="M20.682,9.074c2.51-1.594,5.171-2.89,7.963-3.879c-1.124,1.002-2.429,2.236-3.826,3.688
		C23.184,8.946,21.803,9.013,20.682,9.074z"/>
</g>
<g>
	<path fill="#FFFFFF" d="M33.531,8.653c2.06-2.957,3.727-4.872,4.334-5.543c0.427-0.044,0.863-0.082,1.309-0.113
		c-0.612,1.226-1.506,3.133-2.494,5.622C35.587,8.627,34.537,8.639,33.531,8.653z"/>
</g>
<g>
	<path fill="#FFFFFF" d="M27.738,8.781c2.844-2.778,5.109-4.504,5.725-4.96c0.47-0.103,0.94-0.197,1.412-0.283
		c-0.997,1.227-2.332,2.969-3.795,5.158C29.892,8.721,28.778,8.749,27.738,8.781z"/>
</g>
<g>
	<path fill="#FFFFFF" d="M2.068,41.883c0.079-3.133,0.528-6.251,1.338-9.293c1.13-0.143,3.734-0.453,7.582-0.796
		c-0.943,3.343-1.451,6.727-1.513,10.09H2.068z"/>
</g>
<g>
	<path fill="#FFFFFF" d="M35.948,74.866c-1.496-0.014-2.904-0.034-4.229-0.06c-1.835-2.696-3.441-5.476-4.788-8.287
		c2.091,0.059,4.215,0.104,6.342,0.135C34.024,69.398,34.921,72.151,35.948,74.866z"/>
</g>
<g>
	<path fill="#FFFFFF" d="M38.84,8.609c0.897-2.198,1.687-3.857,2.215-4.904V8.61C41.055,8.61,39.186,8.608,38.84,8.609z"/>
</g>
<g>
	<path fill="#FFFFFF" d="M34.854,82.226c-0.449-0.082-0.897-0.172-1.345-0.27c-1.962-1.707-3.83-3.463-5.576-5.24
		c0.859,0.025,1.767,0.049,2.723,0.069C31.938,78.61,33.344,80.432,34.854,82.226z"/>
</g>
<g>
	<path fill="#FFFFFF" d="M55.135,74.651c1.751-2.698,3.279-5.472,4.559-8.271c1.777-0.063,3.588-0.137,5.428-0.222
		c-1.864,2.795-4.09,5.606-6.637,8.383C57.348,74.583,56.231,74.619,55.135,74.651z"/>
</g>
<g>
	<path fill="#FFFFFF" d="M63.634,54.393c0.707-3.463,1.064-6.987,1.067-10.51h8.159c-0.12,3.313-0.702,6.655-1.734,9.96
		C68.597,54.057,66.085,54.241,63.634,54.393z"/>
</g>
<g>
	<path fill="#FFFFFF" d="M43.055,66.707c1.924-0.008,3.909-0.026,5.95-0.059c-0.771,2.751-1.688,5.498-2.731,8.191
		c-1.102,0.014-2.175,0.024-3.219,0.031V66.707z"/>
</g>
<g>
	<path fill="#FFFFFF" d="M43.055,8.619V3.236c0.513,0.99,1.423,2.841,2.47,5.406C44.684,8.632,43.861,8.625,43.055,8.619z"/>
</g>
<g>
	<path fill="#FFFFFF" d="M56.727,8.889c-1.154-0.038-2.286-0.071-3.394-0.101c-1.466-2.199-2.808-3.957-3.813-5.197
		c0.495,0.094,0.987,0.196,1.475,0.308C51.737,4.453,53.959,6.173,56.727,8.889z"/>
</g>
<g>
	<path fill="#FFFFFF" d="M50.875,8.73c-1.086-0.023-2.146-0.043-3.184-0.059c-0.995-2.513-1.89-4.424-2.504-5.655
		c0.444,0.034,0.887,0.076,1.326,0.125C47.146,3.843,48.825,5.782,50.875,8.73z"/>
</g>
<g>
	<path fill="#FFFFFF" d="M63.545,9.148c-1.328-0.058-2.63-0.11-3.906-0.158c-1.365-1.424-2.651-2.646-3.769-3.648
		C58.559,6.329,61.123,7.6,63.545,9.148z"/>
</g>
<g>
	<path fill="#FFFFFF" d="M74.755,19.858c-2.248-0.144-4.536-0.275-6.931-0.396c-1.791-2.886-3.896-5.701-6.274-8.396
		c1.635,0.066,3.31,0.141,5.029,0.225C69.725,13.737,72.468,16.612,74.755,19.858z"/>
</g>
<g>
	<path fill="#FFFFFF" d="M55.101,80.656c0.896-0.846,1.37-1.285,1.684-1.576c0.622-0.577,0.622-0.576,1.962-1.936l0.631-0.64
		c1.018-0.049,2.172-0.076,3.355-0.104c0.485-0.012,0.976-0.023,1.464-0.036C61.544,78.048,58.448,79.509,55.101,80.656z"/>
</g>
<g>
	<path fill="#FFFFFF" d="M11.033,53.706c-3.886-0.35-6.606-0.684-7.783-0.837c-0.752-2.926-1.169-5.941-1.245-8.986h7.424
		C9.541,47.15,10.079,50.444,11.033,53.706z"/>
</g>
<g>
	<path fill="#FFFFFF" d="M15.558,64.056c-3.992-0.225-6.742-0.467-7.806-0.567c-1.614-2.679-2.905-5.53-3.847-8.499
		c1.559,0.182,4.257,0.476,7.837,0.784C12.706,58.54,13.985,61.317,15.558,64.056z"/>
</g>
<g>
	<path fill="#FFFFFF" d="M23.179,74.541c-3.011-0.133-4.902-0.263-5.593-0.313c-3.401-2.69-6.268-5.621-8.394-8.574
		c1.666,0.124,4.278,0.302,7.631,0.473C18.599,68.928,20.73,71.749,23.179,74.541z"/>
</g>
<g>
	<path fill="#FFFFFF" d="M29.422,80.735c-3.088-1.071-6.054-2.526-8.798-4.316c1.186,0.063,2.666,0.134,4.43,0.201
		C26.347,77.979,27.86,79.362,29.422,80.735z"/>
</g>
<g>
	<path fill="#FFFFFF" d="M41.027,81.806c-0.611-1.368-1.482-3.335-2.149-4.918c0.255,0.001,1.684,0,2.149-0.001V81.806z"/>
</g>
<g>
	<path fill="#FFFFFF" d="M39.311,82.819c-0.499-0.035-1.025-0.076-1.455-0.117c-1.703-1.915-3.285-3.866-4.72-5.823
		c1.136,0.018,2.33,0.031,3.582,0.04C37.53,78.932,38.424,80.964,39.311,82.819z"/>
</g>
<g>
	<path fill="#FFFFFF" d="M43.056,76.872c0.782-0.005,1.58-0.013,2.395-0.022c-0.74,1.71-1.745,3.873-2.395,5.256V76.872z"/>
</g>
<g>
	<path fill="#FFFFFF" d="M44.921,82.877c0.766-1.643,1.97-4.262,2.716-6.057c1.18-0.019,2.389-0.041,3.631-0.068
		c-1.569,2.177-3.139,4.146-4.763,5.978C45.973,82.789,45.445,82.838,44.921,82.877z"/>
</g>
<g>
	<path fill="none" d="M73.334,53.435c0.944-3.241,1.478-6.517,1.589-9.768h7.181c-0.075,3.053-0.494,6.075-1.251,9.008
		C79.399,52.828,75.92,53.19,73.334,53.435z"/>
</g>
<g>
	<path fill="none" d="M68.819,63.982c1.547-2.722,2.862-5.612,3.855-8.478c2.267-0.207,5.66-0.556,7.591-0.757
		c-0.798,2.59-2.038,5.867-3.859,8.915C75.075,63.717,71.531,63.861,68.819,63.982z"/>
</g>
<g>
	<path fill="none" d="M61.259,74.442c2.438-2.788,4.559-5.605,6.325-8.401l7.602-0.371c-2.236,3.23-4.925,6.104-8.014,8.562
		C66.247,74.265,63.534,74.36,61.259,74.442z"/>
</g>
<g>
	<path fill="#FFFFFF" d="M101.146,30.208c1.652,0,3.116,0.308,4.39,0.924c1.274,0.616,2.346,1.442,3.214,2.479
		s1.526,2.248,1.975,3.634s0.672,2.863,0.672,4.432s-0.224,3.045-0.672,4.432s-1.106,2.598-1.975,3.634s-1.939,1.855-3.214,2.458
		c-1.273,0.602-2.737,0.902-4.39,0.902s-3.115-0.301-4.39-0.902c-1.274-0.603-2.346-1.422-3.213-2.458
		c-0.868-1.036-1.526-2.247-1.975-3.634s-0.672-2.863-0.672-4.432s0.224-3.045,0.672-4.432s1.106-2.598,1.975-3.634
		c0.867-1.036,1.938-1.862,3.213-2.479S99.493,30.208,101.146,30.208z M101.146,32.435c-1.26,0-2.366,0.266-3.318,0.798
		c-0.952,0.532-1.743,1.232-2.373,2.1s-1.106,1.855-1.429,2.961c-0.322,1.106-0.482,2.233-0.482,3.382
		c0,1.148,0.16,2.275,0.482,3.381c0.322,1.107,0.798,2.094,1.429,2.963c0.63,0.867,1.421,1.567,2.373,2.1s2.059,0.799,3.318,0.799
		c1.261,0,2.367-0.267,3.319-0.799s1.743-1.232,2.373-2.1c0.63-0.869,1.106-1.855,1.428-2.963c0.322-1.105,0.483-2.233,0.483-3.381
		c0-1.148-0.161-2.275-0.483-3.382c-0.321-1.106-0.798-2.093-1.428-2.961s-1.421-1.568-2.373-2.1
		C103.513,32.701,102.406,32.435,101.146,32.435z"/>
	<path fill="#FFFFFF" d="M115.298,30.839h2.646v3.739h0.084c0.504-1.316,1.4-2.374,2.688-3.172c1.288-0.798,2.702-1.197,4.243-1.197
		c1.512,0,2.779,0.196,3.801,0.588c1.022,0.392,1.842,0.945,2.458,1.659c0.616,0.714,1.05,1.589,1.302,2.625
		s0.378,2.198,0.378,3.487v13.946h-2.646V38.988c0-0.924-0.084-1.785-0.252-2.583s-0.462-1.491-0.882-2.08
		c-0.42-0.588-0.987-1.05-1.701-1.386c-0.714-0.336-1.604-0.504-2.668-0.504c-1.063,0-2.009,0.189-2.835,0.567
		c-0.826,0.378-1.526,0.896-2.101,1.555c-0.574,0.658-1.022,1.442-1.344,2.352c-0.322,0.91-0.497,1.897-0.525,2.962v12.644h-2.646
		V30.839z"/>
	<path fill="#FFFFFF" d="M139.448,42.391c0,0.952,0.133,1.939,0.398,2.962c0.267,1.021,0.693,1.939,1.281,2.752
		c0.588,0.812,1.33,1.483,2.227,2.016s1.975,0.799,3.234,0.799c1.933,0,3.444-0.505,4.537-1.513
		c1.092-1.009,1.849-2.353,2.269-4.032h2.646c-0.561,2.464-1.59,4.368-3.088,5.713c-1.498,1.344-3.619,2.016-6.364,2.016
		c-1.708,0-3.186-0.301-4.432-0.902c-1.246-0.603-2.262-1.429-3.046-2.479c-0.784-1.051-1.365-2.27-1.743-3.655
		s-0.566-2.85-0.566-4.39c0-1.428,0.188-2.829,0.566-4.201c0.378-1.373,0.959-2.598,1.743-3.676s1.8-1.946,3.046-2.604
		s2.724-0.987,4.432-0.987c1.736,0,3.221,0.35,4.453,1.05s2.233,1.617,3.003,2.751c0.771,1.134,1.323,2.437,1.66,3.907
		c0.336,1.47,0.476,2.961,0.42,4.474H139.448z M153.479,40.165c-0.028-1.008-0.203-1.975-0.525-2.898
		c-0.322-0.924-0.777-1.744-1.365-2.458c-0.588-0.714-1.302-1.288-2.143-1.722c-0.84-0.434-1.792-0.651-2.856-0.651
		c-1.092,0-2.059,0.217-2.898,0.651c-0.84,0.434-1.554,1.008-2.143,1.722c-0.588,0.714-1.057,1.54-1.407,2.479
		c-0.35,0.938-0.581,1.897-0.692,2.877H153.479z"/>
	<path fill="#FFFFFF" d="M159.692,30.839h2.437v4.117h0.084c0.616-1.512,1.617-2.682,3.003-3.508
		c1.387-0.826,2.962-1.239,4.727-1.239c1.652,0,3.087,0.308,4.306,0.924c1.218,0.616,2.233,1.449,3.045,2.5
		c0.813,1.05,1.415,2.269,1.807,3.655s0.588,2.849,0.588,4.39c0,1.54-0.195,3.004-0.588,4.39c-0.392,1.386-0.994,2.604-1.807,3.655
		c-0.812,1.05-1.827,1.876-3.045,2.479c-1.219,0.602-2.653,0.902-4.306,0.902c-0.784,0-1.568-0.098-2.353-0.294
		s-1.513-0.489-2.185-0.882s-1.268-0.883-1.785-1.471c-0.519-0.588-0.917-1.273-1.197-2.059h-0.084v12.099h-2.646V30.839z
		 M177.04,41.677c0-1.12-0.133-2.233-0.398-3.34c-0.267-1.106-0.687-2.093-1.261-2.961s-1.309-1.575-2.205-2.121
		c-0.896-0.546-1.975-0.819-3.234-0.819c-1.456,0-2.675,0.252-3.655,0.756c-0.979,0.504-1.764,1.176-2.352,2.016
		c-0.589,0.84-1.002,1.82-1.239,2.94c-0.238,1.12-0.357,2.296-0.357,3.529c0,1.12,0.133,2.233,0.399,3.34
		c0.266,1.105,0.699,2.094,1.302,2.961c0.603,0.869,1.387,1.576,2.353,2.121c0.966,0.547,2.149,0.82,3.55,0.82
		c1.26,0,2.338-0.273,3.234-0.82c0.896-0.545,1.631-1.252,2.205-2.121c0.574-0.867,0.994-1.855,1.261-2.961
		C176.907,43.91,177.04,42.797,177.04,41.677z"/>
	<path fill="#FFFFFF" d="M183.799,30.839h2.437v5.083h0.084c0.672-1.765,1.715-3.123,3.13-4.075
		c1.414-0.952,3.102-1.386,5.062-1.302v2.646c-1.204-0.056-2.297,0.105-3.276,0.483c-0.98,0.378-1.827,0.917-2.542,1.617
		c-0.714,0.7-1.267,1.533-1.659,2.5c-0.392,0.966-0.588,2.023-0.588,3.171v11.552h-2.646V30.839z"/>
	<path fill="#FFFFFF" d="M205.431,30.208c1.652,0,3.116,0.308,4.39,0.924c1.274,0.616,2.346,1.442,3.214,2.479
		s1.526,2.248,1.975,3.634s0.672,2.863,0.672,4.432s-0.224,3.045-0.672,4.432s-1.106,2.598-1.975,3.634s-1.939,1.855-3.214,2.458
		c-1.273,0.602-2.737,0.902-4.39,0.902s-3.115-0.301-4.39-0.902c-1.274-0.603-2.346-1.422-3.213-2.458
		c-0.868-1.036-1.526-2.247-1.975-3.634s-0.672-2.863-0.672-4.432s0.224-3.045,0.672-4.432s1.106-2.598,1.975-3.634
		c0.867-1.036,1.938-1.862,3.213-2.479S203.779,30.208,205.431,30.208z M205.431,32.435c-1.26,0-2.366,0.266-3.318,0.798
		c-0.952,0.532-1.743,1.232-2.373,2.1s-1.106,1.855-1.429,2.961c-0.322,1.106-0.482,2.233-0.482,3.382
		c0,1.148,0.16,2.275,0.482,3.381c0.322,1.107,0.798,2.094,1.429,2.963c0.63,0.867,1.421,1.567,2.373,2.1s2.059,0.799,3.318,0.799
		c1.261,0,2.367-0.267,3.319-0.799s1.743-1.232,2.373-2.1c0.63-0.869,1.106-1.855,1.428-2.963c0.322-1.105,0.483-2.233,0.483-3.381
		c0-1.148-0.161-2.275-0.483-3.382c-0.321-1.106-0.798-2.093-1.428-2.961s-1.421-1.568-2.373-2.1
		C207.798,32.701,206.692,32.435,205.431,32.435z"/>
	<path fill="#FFFFFF" d="M217.189,30.839h2.94l6.806,19.029h0.084l6.721-19.029h2.73l-8.107,21.676h-2.814L217.189,30.839z"/>
	<path fill="#FFFFFF" d="M239.114,22.521h2.646v4.243h-2.646V22.521z M239.114,30.839h2.646v21.676h-2.646V30.839z"/>
	<path fill="#FFFFFF" d="M265.912,52.515h-2.437v-4.117h-0.084c-0.28,0.701-0.693,1.345-1.239,1.933
		c-0.546,0.589-1.169,1.085-1.869,1.491s-1.449,0.721-2.247,0.945c-0.799,0.225-1.59,0.336-2.374,0.336
		c-1.652,0-3.087-0.301-4.306-0.902c-1.218-0.603-2.233-1.429-3.046-2.479c-0.812-1.051-1.414-2.27-1.806-3.655
		c-0.393-1.386-0.588-2.85-0.588-4.39c0-1.541,0.195-3.003,0.588-4.39c0.392-1.386,0.994-2.604,1.806-3.655
		c0.813-1.05,1.828-1.883,3.046-2.5c1.219-0.616,2.653-0.924,4.306-0.924c0.813,0,1.604,0.098,2.374,0.294
		c0.77,0.196,1.491,0.497,2.163,0.903c0.672,0.406,1.268,0.903,1.785,1.491c0.519,0.588,0.917,1.274,1.197,2.059h0.084V22.521h2.646
		V52.515z M248.564,41.677c0,1.12,0.133,2.233,0.398,3.34c0.267,1.105,0.687,2.094,1.261,2.961c0.574,0.869,1.309,1.576,2.205,2.121
		c0.896,0.547,1.975,0.82,3.234,0.82c1.4,0,2.584-0.273,3.55-0.82c0.966-0.545,1.75-1.252,2.353-2.121
		c0.602-0.867,1.036-1.855,1.302-2.961c0.267-1.106,0.399-2.22,0.399-3.34s-0.133-2.233-0.399-3.34
		c-0.266-1.106-0.7-2.093-1.302-2.961c-0.603-0.868-1.387-1.575-2.353-2.121c-0.966-0.546-2.149-0.819-3.55-0.819
		c-1.26,0-2.338,0.273-3.234,0.819c-0.896,0.546-1.631,1.253-2.205,2.121s-0.994,1.855-1.261,2.961
		C248.697,39.443,248.564,40.557,248.564,41.677z"/>
	<path fill="#FFFFFF" d="M272.503,42.391c0,0.952,0.133,1.939,0.398,2.962c0.267,1.021,0.693,1.939,1.281,2.752
		c0.588,0.812,1.33,1.483,2.227,2.016s1.975,0.799,3.234,0.799c1.933,0,3.444-0.505,4.537-1.513
		c1.092-1.009,1.849-2.353,2.269-4.032h2.646c-0.561,2.464-1.59,4.368-3.088,5.713c-1.498,1.344-3.619,2.016-6.364,2.016
		c-1.708,0-3.186-0.301-4.432-0.902c-1.246-0.603-2.262-1.429-3.046-2.479c-0.784-1.051-1.365-2.27-1.743-3.655
		s-0.566-2.85-0.566-4.39c0-1.428,0.188-2.829,0.566-4.201c0.378-1.373,0.959-2.598,1.743-3.676s1.8-1.946,3.046-2.604
		s2.724-0.987,4.432-0.987c1.736,0,3.221,0.35,4.453,1.05s2.233,1.617,3.003,2.751c0.771,1.134,1.323,2.437,1.66,3.907
		c0.336,1.47,0.476,2.961,0.42,4.474H272.503z M286.533,40.165c-0.028-1.008-0.203-1.975-0.525-2.898
		c-0.322-0.924-0.777-1.744-1.365-2.458c-0.588-0.714-1.302-1.288-2.143-1.722c-0.84-0.434-1.792-0.651-2.856-0.651
		c-1.092,0-2.059,0.217-2.898,0.651c-0.84,0.434-1.554,1.008-2.143,1.722c-0.588,0.714-1.057,1.54-1.407,2.479
		c-0.35,0.938-0.581,1.897-0.692,2.877H286.533z"/>
	<path fill="#FFFFFF" d="M292.746,30.839h2.437v5.083h0.084c0.672-1.765,1.715-3.123,3.13-4.075
		c1.414-0.952,3.102-1.386,5.062-1.302v2.646c-1.204-0.056-2.297,0.105-3.276,0.483c-0.98,0.378-1.827,0.917-2.542,1.617
		c-0.714,0.7-1.267,1.533-1.659,2.5c-0.392,0.966-0.588,2.023-0.588,3.171v11.552h-2.646V30.839z"/>
</g>
</svg>
